<svg width="27" height="29" viewBox="0 0 27 29" fill="none" xmlns="http://www.w3.org/2000/svg">
<g clip-path="url(#clip0_107_170)">
<path d="M22.5018 25.7036L20.4926 21.2234C20.0602 20.2661 19.5012 19.5695 18.5361 19.9943L16.6324 20.7533C15.1084 21.5122 14.349 20.7533 13.5844 19.6091L10.1566 11.232C9.72421 10.2747 9.95097 9.37415 10.916 8.94935L13.5791 7.80521C14.5441 7.37474 14.3912 6.47982 13.9588 5.52259L11.6754 0.957354C11.243 0.000127614 10.357 -0.232099 9.39199 0.192706C7.46191 1.04798 5.86406 2.39036 4.82519 4.37845C3.55957 6.80833 4.19238 10.1898 4.4455 11.6115C4.69863 13.0331 5.58457 15.5253 6.7289 18.0798C7.87324 20.64 8.87519 22.6507 9.77695 23.7892C10.6734 24.9277 12.825 28.0429 15.4881 28.7396C17.6713 29.306 20.0285 28.8302 21.9586 27.9749C22.9289 27.5671 22.9289 26.6665 22.5018 25.7036Z" fill="#603718"/>
</g>
<defs>
<clipPath id="clip0_107_170">
<rect width="27" height="29" fill="white"/>
</clipPath>
</defs>
</svg>
