<svg width="391" height="185" viewBox="0 0 391 185" fill="none" xmlns="http://www.w3.org/2000/svg">
<g clip-path="url(#clip0_55_7)">
<g clip-path="url(#clip1_55_7)">
<g clip-path="url(#clip2_55_7)">
<path d="M65.2133 54.1652C73.4704 54.1652 79.5254 52.2696 81.7274 50.4769L93.7622 25.2229C93.7622 18.6827 80.9802 13.3809 65.2133 13.3809C49.4465 13.3809 36.6665 18.6827 36.6665 25.2229L48.836 50.5836C51.147 52.3439 57.1208 54.1652 65.2133 54.1652Z" fill="#4C3F38"/>
<path d="M65.2135 8.17799C82.0923 8.17799 99.1791 14.0324 99.1791 25.2229V26.3564L87.4992 50.8617C88.8846 52.6601 90.2641 54.4337 91.6257 56.1902C109.22 78.8399 124.414 98.3995 124.412 124.591C124.412 155.968 97.8552 181.492 65.2135 181.492C32.5718 181.492 6.01494 155.968 6.01494 124.591C6.01494 99.1501 21.1238 79.5162 38.617 56.7808C40.0856 54.8719 41.5702 52.9401 43.0646 50.9836L31.2518 26.364V25.221C31.2518 14.0324 48.3367 8.17799 65.2135 8.17799ZM65.2135 2.97327C46.2497 2.97327 25.839 9.93639 25.839 25.2229V26.3659C25.839 27.1185 26.0074 27.8614 26.3365 28.5454L36.8114 50.374L34.3596 53.565L34.2645 53.6869C16.2005 77.1634 0.600098 97.4356 0.600098 124.591C0.600098 158.837 29.585 186.699 65.2135 186.699C100.844 186.699 129.827 158.837 129.827 124.591C129.831 96.6697 114.137 76.4681 95.9663 53.0754L95.8434 52.9173L93.7564 50.2273L104.1 28.5206C104.426 27.8409 104.594 27.101 104.592 26.3526V25.2191C104.59 9.93639 84.1773 2.97327 65.2135 2.97327Z" fill="#4C3F38"/>
<path d="M83.0515 53.826C79.1291 56.3351 72.1524 57.6343 65.2134 57.6343C58.3656 57.6343 51.4801 56.3674 47.53 53.9232C28.7564 78.5256 11.4277 98.7635 11.4277 124.591C11.4277 152.163 33.8839 174.685 62.173 176.202V160.247L53.7118 152.664V144.836L65.2075 154.379L76.713 144.836V152.664L68.2538 160.247V176.202C96.541 174.685 118.999 152.161 118.999 124.591C118.999 98.1233 101.815 78.1598 83.0515 53.826ZM50.5961 91.385L62.6071 101.111V111.81C62.6071 111.81 53.2223 103.844 51.383 102.082C49.5477 100.316 50.5961 91.385 50.5961 91.385ZM62.4644 145.568C62.4644 145.568 52.5484 137.104 51.2403 135.844C49.9361 134.587 50.4554 125.145 50.4554 125.145L62.4664 134.869L62.4644 145.568ZM62.6487 128.853C62.6487 128.853 53.2382 120.872 51.4246 119.129C49.615 117.388 50.6397 108.432 50.6397 108.432L62.6507 118.155L62.6487 128.853ZM58.0861 88.7617L65.2095 75.7518L72.3407 88.7617L65.2095 94.3017L58.0861 88.7617ZM78.8893 135.844C76.8062 137.652 67.6672 145.568 67.6672 145.568V134.871L79.6761 125.147C79.6761 125.147 80.9763 134.036 78.8893 135.844ZM79.0756 119.131C77.4424 120.701 67.8535 128.854 67.8535 128.854V118.161L79.8624 108.438C79.8624 108.434 80.7088 117.561 79.0756 119.131ZM79.034 102.082C77.1748 103.698 67.8118 111.81 67.8118 111.81V101.111L79.8228 91.385C79.8188 91.385 80.899 100.465 79.034 102.082Z" fill="#4C3F38"/>
</g>
</g>
</g>
<defs>
<clipPath id="clip0_55_7">
<rect width="389.55" height="183.726" fill="white" transform="translate(0.600098 0.705078)"/>
</clipPath>
<clipPath id="clip1_55_7">
<rect width="129.227" height="183.726" fill="white" transform="translate(0.600098 2.97327)"/>
</clipPath>
<clipPath id="clip2_55_7">
<rect width="129.227" height="183.726" fill="white" transform="translate(0.600098 2.97327)"/>
</clipPath>
</defs>
</svg>
