<svg width="391" height="187" viewBox="0 0 391 187" fill="none" xmlns="http://www.w3.org/2000/svg">
<g clip-path="url(#clip0_99_1172)">
<g clip-path="url(#clip1_99_1172)">
<g clip-path="url(#clip2_99_1172)">
<path d="M65.2133 54.6249C73.4704 54.6249 79.5254 52.7004 81.7274 50.8804L93.7622 25.2419C93.7622 18.6021 80.9802 13.2195 65.2133 13.2195C49.4465 13.2195 36.6665 18.6021 36.6665 25.2419L48.836 50.9887C51.147 52.7759 57.1208 54.6249 65.2133 54.6249Z" fill="#4C3F38"/>
<path d="M65.2135 7.9373C82.0923 7.9373 99.1791 13.8808 99.1791 25.2418V26.3926L87.4992 51.271C88.8846 53.0968 90.2641 54.8974 91.6257 56.6807C109.22 79.6753 124.414 99.5328 124.412 126.123C124.412 157.978 97.8552 183.891 65.2135 183.891C32.5718 183.891 6.01494 157.978 6.01494 126.123C6.01494 100.295 21.1238 80.3619 38.617 57.2803C40.0856 55.3423 41.5702 53.3811 43.0646 51.3948L31.2518 26.4003V25.2398C31.2518 13.8808 48.3367 7.9373 65.2135 7.9373ZM65.2135 2.65332C46.2497 2.65332 25.839 9.72248 25.839 25.2418V26.4022C25.839 27.1662 26.0074 27.9205 26.3365 28.6149L36.8114 50.7759L34.3596 54.0155L34.2645 54.1393C16.2005 77.9733 0.600098 98.5541 0.600098 126.123C0.600098 160.89 29.585 189.177 65.2135 189.177C100.844 189.177 129.827 160.89 129.827 126.123C129.831 97.7766 114.137 77.2673 95.9663 53.5184L95.8434 53.3579L93.7564 50.6269L104.1 28.5897C104.426 27.8997 104.594 27.1485 104.592 26.3887V25.2379C104.59 9.72248 84.1773 2.65332 65.2135 2.65332Z" fill="#4C3F38"/>
<path d="M83.0515 54.2805C79.1291 56.8277 72.1524 58.1468 65.2134 58.1468C58.3656 58.1468 51.4801 56.8606 47.53 54.3792C28.7564 79.3562 11.4277 99.9022 11.4277 126.123C11.4277 154.115 33.8839 176.98 62.173 178.52V162.322L53.7118 154.624V146.677L65.2075 156.365L76.713 146.677V154.624L68.2538 162.322V178.52C96.541 176.98 118.999 154.113 118.999 126.123C118.999 99.2524 101.815 78.9849 83.0515 54.2805ZM50.5961 92.4115L62.6071 102.285V113.147C62.6071 113.147 53.2223 105.061 51.383 103.271C49.5477 101.479 50.5961 92.4115 50.5961 92.4115ZM62.4644 147.419C62.4644 147.419 52.5484 138.826 51.2403 137.548C49.9361 136.271 50.4554 126.686 50.4554 126.686L62.4664 136.557L62.4644 147.419ZM62.6487 130.45C62.6487 130.45 53.2382 122.348 51.4246 120.578C49.615 118.81 50.6397 109.718 50.6397 109.718L62.6507 119.59L62.6487 130.45ZM58.0861 89.7482L65.2095 76.5402L72.3407 89.7482L65.2095 95.3726L58.0861 89.7482ZM78.8893 137.548C76.8062 139.383 67.6672 147.419 67.6672 147.419V136.559L79.6761 126.688C79.6761 126.688 80.9763 135.712 78.8893 137.548ZM79.0756 120.58C77.4424 122.174 67.8535 130.451 67.8535 130.451V119.595L79.8624 109.724C79.8624 109.72 80.7088 118.986 79.0756 120.58ZM79.034 103.271C77.1748 104.912 67.8118 113.147 67.8118 113.147V102.285L79.8228 92.4115C79.8188 92.4115 80.899 101.629 79.034 103.271Z" fill="#4C3F38"/>
</g>
</g>
</g>
<defs>
<clipPath id="clip0_99_1172">
<rect width="389.55" height="186.523" fill="white" transform="translate(0.600098 0.350586)"/>
</clipPath>
<clipPath id="clip1_99_1172">
<rect width="129.227" height="186.523" fill="white" transform="translate(0.600098 2.65332)"/>
</clipPath>
<clipPath id="clip2_99_1172">
<rect width="129.227" height="186.523" fill="white" transform="translate(0.600098 2.65332)"/>
</clipPath>
</defs>
</svg>
