<svg width="28" height="28" viewBox="0 0 28 28" fill="none" xmlns="http://www.w3.org/2000/svg">
<g clip-path="url(#clip0_107_164)">
<path d="M24.3707 4.52289C24.268 4.51231 24.1644 4.51231 24.0616 4.52289H2.9547C2.81942 4.52498 2.68504 4.54526 2.55518 4.5832L13.4479 15.4307L24.3707 4.52289Z" fill="#603718"/>
<path d="M25.4859 5.57068L14.5103 16.5011C14.2278 16.7819 13.8457 16.9395 13.4474 16.9395C13.0491 16.9395 12.667 16.7819 12.3845 16.5011L1.50687 5.6536C1.47343 5.7765 1.4557 5.90315 1.4541 6.03051V21.1069C1.4541 21.5067 1.61294 21.8902 1.89568 22.173C2.17842 22.4557 2.56189 22.6145 2.96174 22.6145H24.0687C24.4685 22.6145 24.852 22.4557 25.1347 22.173C25.4175 21.8902 25.5763 21.5067 25.5763 21.1069V6.03051C25.5703 5.87345 25.5398 5.7183 25.4859 5.57068ZM3.99447 21.1069H2.94666V20.0289L8.42693 14.5939L9.48982 15.6568L3.99447 21.1069ZM24.0536 21.1069H22.9983L17.5029 15.6568L18.5658 14.5939L24.0461 20.0289L24.0536 21.1069Z" fill="#603718"/>
</g>
<defs>
<clipPath id="clip0_107_164">
<rect width="27.1375" height="27.1375" fill="white"/>
</clipPath>
</defs>
</svg>
