<svg width="44" height="44" viewBox="0 0 44 44" fill="none" xmlns="http://www.w3.org/2000/svg">
<path d="M41.9999 31.84V37.84C42.0021 38.397 41.888 38.9483 41.6649 39.4587C41.4417 39.9691 41.1145 40.4272 40.704 40.8037C40.2936 41.1803 39.809 41.467 39.2814 41.6454C38.7537 41.8239 38.1946 41.8901 37.6399 41.84C31.4855 41.1713 25.5739 39.0683 20.3799 35.7C15.5475 32.6293 11.4505 28.5324 8.37987 23.7C4.99982 18.4824 2.89635 12.542 2.23987 6.36001C2.18989 5.80694 2.25562 5.24953 2.43287 4.72326C2.61012 4.19699 2.89501 3.71339 3.2694 3.30325C3.64379 2.89312 4.09948 2.56543 4.60745 2.34105C5.11542 2.11668 5.66455 2.00053 6.21987 2.00001H12.2199C13.1905 1.99046 14.1314 2.33417 14.8674 2.96708C15.6033 3.59998 16.084 4.4789 16.2199 5.44001C16.4731 7.36014 16.9428 9.24546 17.6199 11.06C17.889 11.7759 17.9472 12.5538 17.7877 13.3018C17.6282 14.0497 17.2576 14.7362 16.7199 15.28L14.1799 17.82C17.027 22.8271 21.1728 26.9729 26.1799 29.82L28.7199 27.28C29.2636 26.7423 29.9502 26.3717 30.6981 26.2122C31.446 26.0527 32.224 26.1109 32.9399 26.38C34.7544 27.0571 36.6397 27.5268 38.5599 27.78C39.5314 27.9171 40.4187 28.4064 41.0529 29.155C41.6872 29.9036 42.0242 30.8592 41.9999 31.84Z" stroke="#1E1E1E" stroke-width="4" stroke-linecap="round" stroke-linejoin="round"/>
</svg>
