<svg width="26" height="26" viewBox="0 0 26 26" fill="none" xmlns="http://www.w3.org/2000/svg">
<path d="M3.27148 12.5437C3.27148 7.86982 3.27148 5.53183 4.72334 4.07997C6.1752 2.62811 8.51215 2.62811 13.1871 2.62811C17.861 2.62811 20.199 2.62811 21.6509 4.07997C23.1027 5.53183 23.1027 7.86878 23.1027 12.5437C23.1027 17.2176 23.1027 19.5556 21.6509 21.0075C20.199 22.4594 17.8621 22.4594 13.1871 22.4594C8.5132 22.4594 6.1752 22.4594 4.72334 21.0075C3.27148 19.5556 3.27148 17.2187 3.27148 12.5437Z" stroke="#43332C" stroke-width="1.56563" stroke-linecap="round" stroke-linejoin="round"/>
<path d="M18.9361 6.80316H18.9256M17.884 12.5438C17.884 13.7895 17.3891 14.9841 16.5083 15.865C15.6275 16.7458 14.4328 17.2407 13.1871 17.2407C11.9414 17.2407 10.7468 16.7458 9.86592 15.865C8.98508 14.9841 8.49023 13.7895 8.49023 12.5438C8.49023 11.2981 8.98508 10.1034 9.86592 9.22259C10.7468 8.34176 11.9414 7.84691 13.1871 7.84691C14.4328 7.84691 15.6275 8.34176 16.5083 9.22259C17.3891 10.1034 17.884 11.2981 17.884 12.5438Z" stroke="#43332C" stroke-width="1.56563" stroke-linecap="round" stroke-linejoin="round"/>
</svg>
