<svg width="26" height="26" viewBox="0 0 26 26" fill="none" xmlns="http://www.w3.org/2000/svg">
<g clip-path="url(#clip0_107_126)">
<path fill-rule="evenodd" clip-rule="evenodd" d="M18.7876 3.13144C19.6181 3.13144 20.4145 3.46134 21.0017 4.04856C21.589 4.63578 21.9188 5.43223 21.9188 6.26269V18.7877C21.9188 19.6181 21.589 20.4146 21.0017 21.0018C20.4145 21.589 19.6181 21.9189 18.7876 21.9189H6.2626C5.43214 21.9189 4.63569 21.589 4.04847 21.0018C3.46125 20.4146 3.13135 19.6181 3.13135 18.7877V6.26269C3.13135 5.43223 3.46125 4.63578 4.04847 4.04856C4.63569 3.46134 5.43214 3.13144 6.2626 3.13144H18.7876ZM8.3501 10.4377C8.07328 10.4377 7.8078 10.5477 7.61206 10.7434C7.41631 10.9391 7.30635 11.2046 7.30635 11.4814V16.7002C7.30635 16.977 7.41631 17.2425 7.61206 17.4382C7.8078 17.634 8.07328 17.7439 8.3501 17.7439C8.62692 17.7439 8.8924 17.634 9.08814 17.4382C9.28388 17.2425 9.39385 16.977 9.39385 16.7002V11.4814C9.39385 11.2046 9.28388 10.9391 9.08814 10.7434C8.8924 10.5477 8.62692 10.4377 8.3501 10.4377ZM11.4813 9.39394C11.2045 9.39394 10.939 9.50391 10.7433 9.69965C10.5476 9.89539 10.4376 10.1609 10.4376 10.4377V16.7002C10.4376 16.977 10.5476 17.2425 10.7433 17.4382C10.939 17.634 11.2045 17.7439 11.4813 17.7439C11.7582 17.7439 12.0236 17.634 12.2194 17.4382C12.4151 17.2425 12.5251 16.977 12.5251 16.7002V12.8801C12.8434 12.521 13.381 12.0993 13.979 11.8436C14.3266 11.6954 14.8495 11.6349 15.2128 11.7497C15.3333 11.7803 15.4406 11.8491 15.5186 11.9459C15.5728 12.019 15.6563 12.1818 15.6563 12.5252V16.7002C15.6563 16.977 15.7663 17.2425 15.9621 17.4382C16.1578 17.634 16.4233 17.7439 16.7001 17.7439C16.9769 17.7439 17.2424 17.634 17.4381 17.4382C17.6339 17.2425 17.7438 16.977 17.7438 16.7002V12.5252C17.7438 11.8259 17.5664 11.2038 17.1969 10.7049C16.8569 10.2525 16.3811 9.92075 15.839 9.75821C14.8975 9.46283 13.8548 9.6267 13.1587 9.92521C12.9358 10.0211 12.7187 10.1298 12.5084 10.2509C12.4646 10.0104 12.3379 9.79286 12.1502 9.63626C11.9625 9.47966 11.7258 9.3939 11.4813 9.39394ZM8.3501 7.30644C8.07328 7.30644 7.8078 7.41641 7.61206 7.61215C7.41631 7.80789 7.30635 8.07337 7.30635 8.35019C7.30635 8.62701 7.41631 8.89249 7.61206 9.08823C7.8078 9.28397 8.07328 9.39394 8.3501 9.39394C8.62692 9.39394 8.8924 9.28397 9.08814 9.08823C9.28388 8.89249 9.39385 8.62701 9.39385 8.35019C9.39385 8.07337 9.28388 7.80789 9.08814 7.61215C8.8924 7.41641 8.62692 7.30644 8.3501 7.30644Z" fill="#603718"/>
</g>
<defs>
<clipPath id="clip0_107_126">
<rect width="25.05" height="25.05" fill="white"/>
</clipPath>
</defs>
</svg>
