<svg width="66" height="66" viewBox="0 0 66 66" fill="none" xmlns="http://www.w3.org/2000/svg">
<g filter="url(#filter0_d_167_829)">
<ellipse cx="33" cy="28.5085" rx="29" ry="28.5085" fill="#603718"/>
<path d="M32.501 27.3125C30.9263 27.3125 29.416 26.6869 28.3025 25.5734C27.189 24.4599 26.5635 22.9497 26.5635 21.375C26.5635 19.8003 27.189 18.29 28.3025 17.1766C29.416 16.0631 30.9263 15.4375 32.501 15.4375C34.0757 15.4375 35.5859 16.0631 36.6994 17.1766C37.8129 18.29 38.4385 19.8003 38.4385 21.375C38.4385 22.1547 38.2849 22.9268 37.9865 23.6472C37.6881 24.3676 37.2508 25.0221 36.6994 25.5734C36.1481 26.1248 35.4935 26.5621 34.7732 26.8605C34.0528 27.1589 33.2807 27.3125 32.501 27.3125ZM32.501 4.75C28.0918 4.75 23.8631 6.50156 20.7453 9.61935C17.6275 12.7371 15.876 16.9658 15.876 21.375C15.876 33.8437 32.501 52.25 32.501 52.25C32.501 52.25 49.126 33.8437 49.126 21.375C49.126 16.9658 47.3744 12.7371 44.2566 9.61935C41.1388 6.50156 36.9102 4.75 32.501 4.75Z" fill="#EAECCC"/>
</g>
<defs>
<filter id="filter0_d_167_829" x="0" y="0" width="66" height="65.0171" filterUnits="userSpaceOnUse" color-interpolation-filters="sRGB">
<feFlood flood-opacity="0" result="BackgroundImageFix"/>
<feColorMatrix in="SourceAlpha" type="matrix" values="0 0 0 0 0 0 0 0 0 0 0 0 0 0 0 0 0 0 127 0" result="hardAlpha"/>
<feOffset dy="4"/>
<feGaussianBlur stdDeviation="2"/>
<feComposite in2="hardAlpha" operator="out"/>
<feColorMatrix type="matrix" values="0 0 0 0 0 0 0 0 0 0 0 0 0 0 0 0 0 0 0.25 0"/>
<feBlend mode="normal" in2="BackgroundImageFix" result="effect1_dropShadow_167_829"/>
<feBlend mode="normal" in="SourceGraphic" in2="effect1_dropShadow_167_829" result="shape"/>
</filter>
</defs>
</svg>
