<svg width="28" height="28" viewBox="0 0 28 28" fill="none" xmlns="http://www.w3.org/2000/svg">
<g clip-path="url(#clip0_107_131)">
<path d="M22.6162 24.3154L20.5968 20.1229C20.1621 19.2271 19.6003 18.5752 18.6303 18.9727L16.7169 19.683C15.1852 20.3932 14.4219 19.683 13.6534 18.6123L10.2082 10.7732C9.77356 9.87742 10.0015 9.03467 10.9714 8.63715L13.6481 7.56649C14.618 7.16367 14.4643 6.32622 14.0297 5.43047L11.7347 1.15843C11.3 0.262685 10.4096 0.045373 9.43964 0.442895C7.49973 1.24324 5.89374 2.49941 4.84958 4.35981C3.57751 6.63364 4.21355 9.79791 4.46796 11.1283C4.72238 12.4587 5.61283 14.7908 6.76299 17.1812C7.91315 19.577 8.92021 21.4586 9.82656 22.5239C10.7276 23.5893 12.8901 26.5044 15.5668 27.1564C17.7611 27.6864 20.1303 27.2412 22.0702 26.4408C23.0455 26.0592 23.0455 25.2165 22.6162 24.3154Z" fill="#603718"/>
</g>
<defs>
<clipPath id="clip0_107_131">
<rect width="27.1375" height="27.1375" fill="white" transform="translate(0 0.262573)"/>
</clipPath>
</defs>
</svg>
