<svg width="4" height="14" viewBox="0 0 4 14" fill="none" xmlns="http://www.w3.org/2000/svg">
<path fill-rule="evenodd" clip-rule="evenodd" d="M3.42636 0.430969C3.49104 0.430933 3.55509 0.445106 3.61485 0.472676C3.67461 0.500246 3.72891 0.540674 3.77464 0.591648C3.82037 0.642622 3.85664 0.703143 3.88138 0.769751C3.90611 0.836359 3.91883 0.907747 3.9188 0.979835V4.21625C3.91881 4.28834 3.90609 4.35973 3.88135 4.42633C3.85661 4.49294 3.82034 4.55346 3.77461 4.60445C3.72888 4.65543 3.67459 4.69587 3.61484 4.72346C3.55509 4.75105 3.49104 4.76525 3.42636 4.76525H0.492311C0.427624 4.76527 0.363569 4.75108 0.303807 4.72348C0.244046 4.69589 0.189751 4.65543 0.144028 4.60443C0.0983045 4.55343 0.0620497 4.49288 0.0373362 4.42625C0.0126227 4.35962 -6.44427e-05 4.28821 2.46131e-07 4.21611V0.979835C2.42055e-07 0.83429 0.0518648 0.694706 0.144187 0.591777C0.23651 0.488849 0.36173 0.431006 0.492311 0.430969H3.42636ZM3.42636 9.20843C3.49104 9.2084 3.55509 9.22257 3.61485 9.25014C3.67461 9.27771 3.72891 9.31814 3.77464 9.36911C3.82037 9.42009 3.85664 9.48061 3.88138 9.54721C3.90611 9.61382 3.91883 9.68521 3.9188 9.7573V12.9937C3.91881 13.0658 3.90609 13.1372 3.88135 13.2038C3.85661 13.2704 3.82034 13.3309 3.77461 13.3819C3.72888 13.4329 3.67459 13.4733 3.61484 13.5009C3.55509 13.5285 3.49104 13.5427 3.42636 13.5427H0.492311C0.427624 13.5427 0.363569 13.5285 0.303807 13.5009C0.244046 13.4733 0.189751 13.4329 0.144028 13.3819C0.0983045 13.3309 0.0620497 13.2703 0.0373362 13.2037C0.0126227 13.1371 -6.44427e-05 13.0657 2.46131e-07 12.9936V9.7573C2.42055e-07 9.61175 0.0518648 9.47217 0.144187 9.36924C0.23651 9.26631 0.36173 9.20847 0.492311 9.20843H3.42636Z" fill="#603718" fill-opacity="0.9"/>
</svg>
