<svg width="22" height="18" viewBox="0 0 22 18" fill="none" xmlns="http://www.w3.org/2000/svg">
<path fill-rule="evenodd" clip-rule="evenodd" d="M17.67 13.973L20.425 16.728L19.576 17.576L2.85 0.85L3.697 0L6.552 2.855C7.932 2.303 9.432 2 11 2C15.808 2 19.972 4.848 22 9C21.0217 11.0113 19.5276 12.7273 17.67 13.973ZM7.486 3.79L9.15 5.454C9.90493 5.05933 10.7662 4.91598 11.6082 5.04484C12.4503 5.17369 13.2292 5.56802 13.8316 6.17039C14.434 6.77275 14.8283 7.5517 14.9572 8.39377C15.086 9.23584 14.9427 10.0971 14.548 10.852L16.803 13.107C18.377 12.107 19.707 10.704 20.648 9.001C18.686 5.45 15.034 3.2 11 3.2C9.80408 3.20075 8.61659 3.40013 7.486 3.79ZM13.638 9.942C13.8164 9.44271 13.8495 8.90301 13.7332 8.38569C13.6169 7.86837 13.3562 7.39469 12.9812 7.01977C12.6063 6.64484 12.1326 6.38408 11.6153 6.26781C11.098 6.15154 10.5583 6.18455 10.059 6.363L13.638 9.942ZM15.448 15.146C14.068 15.698 12.568 16.001 11 16.001C6.192 16.001 2.028 13.153 0 9.001C0.978321 6.98969 2.47241 5.27373 4.33 4.028L5.197 4.895C3.5915 5.9194 2.26931 7.331 1.352 9C3.314 12.55 6.966 14.8 11 14.8C12.1959 14.7992 13.3834 14.5999 14.514 14.21L15.448 15.146ZM7.453 7.15L8.362 8.06C8.18355 8.55929 8.15055 9.09899 8.26681 9.61631C8.38308 10.1336 8.64384 10.6073 9.01877 10.9822C9.39369 11.3572 9.86737 11.6179 10.3847 11.7342C10.902 11.8505 11.4417 11.8174 11.941 11.639L12.851 12.547C12.0961 12.9417 11.2348 13.085 10.3928 12.9562C9.5507 12.8273 8.77175 12.433 8.16939 11.8306C7.56702 11.2282 7.17269 10.4493 7.04384 9.60723C6.91498 8.76516 7.05833 7.90493 7.453 7.15Z" fill="#686767"/>
</svg>
