<svg width="22" height="17" viewBox="0 0 22 17" fill="none" xmlns="http://www.w3.org/2000/svg">
<path d="M21.2421 3.65811C21.2421 3.65811 21.0373 2.08995 20.406 1.40184C19.6066 0.496207 18.7114 0.49052 18.3019 0.437917C15.3657 0.206177 10.9554 0.206177 10.9554 0.206177H10.9475C10.9475 0.206177 6.53856 0.206177 3.601 0.437917C3.19016 0.491942 2.29629 0.496207 1.49693 1.40184C0.86558 2.08995 0.664755 3.65811 0.664755 3.65811C0.664755 3.65811 0.456055 5.49781 0.456055 7.34177V9.06632C0.456055 10.906 0.664755 12.75 0.664755 12.75C0.664755 12.75 0.869518 14.3181 1.49693 15.0077C2.29629 15.9133 3.34636 15.8834 3.81495 15.9801C5.49637 16.1536 10.9567 16.2062 10.9567 16.2062C10.9567 16.2062 15.3709 16.1976 18.3072 15.9702C18.718 15.9176 19.6119 15.9119 20.4112 15.0062C21.0426 14.3181 21.2474 12.7486 21.2474 12.7486C21.2474 12.7486 21.4561 10.9089 21.4561 9.06489V7.34035C21.4521 5.50065 21.2434 3.65668 21.2434 3.65668L21.2421 3.65811ZM8.78045 11.1577V4.7642L14.4534 7.97159L8.78045 11.1577Z" fill="#603718"/>
</svg>
